<svg width="74" height="74" viewBox="0 0 74 74" fill="none" xmlns="http://www.w3.org/2000/svg">
<path d="M60.2146 22.5285C60.9214 20.2484 61.1482 17.8465 60.8805 15.4744C60.6129 13.1023 59.8566 10.8113 58.6595 8.74601C58.4564 8.39439 58.1644 8.10241 57.8128 7.89945C57.4612 7.69648 57.0623 7.58967 56.6562 7.58976C53.9627 7.58412 51.3052 8.20854 48.8961 9.41312C46.4869 10.6177 44.3929 12.3691 42.7812 14.5273H35.8438C34.2321 12.3691 32.1381 10.6177 29.7289 9.41312C27.3198 8.20854 24.6623 7.58412 21.9688 7.58976C21.5627 7.58967 21.1638 7.69648 20.8122 7.89945C20.4606 8.10241 20.1686 8.39439 19.9655 8.74601C18.7684 10.8113 18.0121 13.1023 17.7445 15.4744C17.4768 17.8465 17.7036 20.2484 18.4104 22.5285C16.9816 25.0223 16.2163 27.8408 16.1875 30.7148V33.0273C16.1924 36.94 17.6128 40.7189 20.1865 43.6661C22.7601 46.6133 26.3132 48.5297 30.1897 49.0616C28.6074 51.0863 27.7485 53.5826 27.75 56.1523V58.4648H20.8125C18.9726 58.4648 17.208 57.7338 15.9069 56.4328C14.6059 55.1318 13.875 53.3672 13.875 51.5273C13.875 50.0089 13.5759 48.5053 12.9949 47.1025C12.4138 45.6997 11.5621 44.425 10.4884 43.3513C9.41474 42.2777 8.1401 41.426 6.73728 40.8449C5.33445 40.2638 3.83091 39.9648 2.3125 39.9648C1.69919 39.9648 1.11099 40.2084 0.677316 40.6421C0.243638 41.0758 0 41.6639 0 42.2773C0 42.8906 0.243638 43.4788 0.677316 43.9124C1.11099 44.3461 1.69919 44.5898 2.3125 44.5898C4.15244 44.5898 5.91702 45.3207 7.21805 46.6217C8.51909 47.9227 9.25 49.6873 9.25 51.5273C9.25 54.5938 10.4682 57.5348 12.6366 59.7032C14.805 61.8716 17.7459 63.0898 20.8125 63.0898H27.75V67.7148C27.75 68.3281 27.9936 68.9163 28.4273 69.3499C28.861 69.7836 29.4492 70.0273 30.0625 70.0273C30.6758 70.0273 31.264 69.7836 31.6977 69.3499C32.1314 68.9163 32.375 68.3281 32.375 67.7148V56.1523C32.375 54.3123 33.1059 52.5477 34.4069 51.2467C35.708 49.9457 37.4726 49.2148 39.3125 49.2148C41.1524 49.2148 42.917 49.9457 44.2181 51.2467C45.5191 52.5477 46.25 54.3123 46.25 56.1523V67.7148C46.25 68.3281 46.4936 68.9163 46.9273 69.3499C47.361 69.7836 47.9492 70.0273 48.5625 70.0273C49.1758 70.0273 49.764 69.7836 50.1977 69.3499C50.6314 68.9163 50.875 68.3281 50.875 67.7148V56.1523C50.8765 53.5826 50.0176 51.0863 48.4353 49.0616C52.3118 48.5297 55.8649 46.6133 58.4385 43.6661C61.0122 40.7189 62.4326 36.94 62.4375 33.0273V30.7148C62.4087 27.8408 61.6434 25.0223 60.2146 22.5285ZM57.8125 33.0273C57.8125 36.0938 56.5943 39.0348 54.4259 41.2032C52.2575 43.3716 49.3166 44.5898 46.25 44.5898H32.375C29.3084 44.5898 26.3675 43.3716 24.1991 41.2032C22.0307 39.0348 20.8125 36.0938 20.8125 33.0273V30.7148C20.8409 28.4023 21.5332 26.1468 22.807 24.2166C23.0445 23.9036 23.1983 23.5353 23.2539 23.1464C23.3096 22.7574 23.2652 22.3608 23.125 21.9937C22.5227 20.4403 22.2328 18.7833 22.272 17.1176C22.3111 15.452 22.6786 13.8104 23.3534 12.287C25.2459 12.4906 27.0683 13.1175 28.6856 14.1213C30.3029 15.1251 31.6735 16.48 32.6959 18.0856C32.9042 18.4114 33.1909 18.6797 33.5298 18.8661C33.8686 19.0524 34.2488 19.1508 34.6355 19.1523H43.9866C44.3748 19.1523 44.7567 19.0546 45.0972 18.8682C45.4377 18.6818 45.7258 18.4126 45.9349 18.0856C46.9571 16.4799 48.3277 15.1249 49.945 14.1211C51.5623 13.1173 53.3848 12.4904 55.2774 12.287C55.9512 13.8108 56.3177 15.4525 56.3559 17.1182C56.3941 18.7839 56.1032 20.4407 55.5 21.9937C55.3602 22.3573 55.3135 22.7499 55.3639 23.1361C55.4144 23.5223 55.5606 23.8897 55.7891 24.2051C57.0756 26.1352 57.7781 28.3954 57.8125 30.7148V33.0273Z" fill="black"/>
</svg>
