<svg width="28" height="21" viewBox="0 0 28 21" fill="none" xmlns="http://www.w3.org/2000/svg">
<path d="M27.75 10.4062C27.75 10.7129 27.6282 11.007 27.4113 11.2238C27.1945 11.4407 26.9004 11.5625 26.5938 11.5625H1.15625C0.849593 11.5625 0.555497 11.4407 0.338658 11.2238C0.121819 11.007 0 10.7129 0 10.4062C0 10.0996 0.121819 9.8055 0.338658 9.58866C0.555497 9.37182 0.849593 9.25 1.15625 9.25H26.5938C26.9004 9.25 27.1945 9.37182 27.4113 9.58866C27.6282 9.8055 27.75 10.0996 27.75 10.4062ZM1.15625 2.3125H26.5938C26.9004 2.3125 27.1945 2.19068 27.4113 1.97384C27.6282 1.757 27.75 1.46291 27.75 1.15625C27.75 0.849593 27.6282 0.555497 27.4113 0.338658C27.1945 0.121819 26.9004 0 26.5938 0H1.15625C0.849593 0 0.555497 0.121819 0.338658 0.338658C0.121819 0.555497 0 0.849593 0 1.15625C0 1.46291 0.121819 1.757 0.338658 1.97384C0.555497 2.19068 0.849593 2.3125 1.15625 2.3125ZM26.5938 18.5H1.15625C0.849593 18.5 0.555497 18.6218 0.338658 18.8387C0.121819 19.0555 0 19.3496 0 19.6562C0 19.9629 0.121819 20.257 0.338658 20.4738C0.555497 20.6907 0.849593 20.8125 1.15625 20.8125H26.5938C26.9004 20.8125 27.1945 20.6907 27.4113 20.4738C27.6282 20.257 27.75 19.9629 27.75 19.6562C27.75 19.3496 27.6282 19.0555 27.4113 18.8387C27.1945 18.6218 26.9004 18.5 26.5938 18.5Z" fill="black"/>
</svg>
