<svg width="74" height="74" viewBox="0 0 74 74" fill="none" xmlns="http://www.w3.org/2000/svg">
<path d="M64 4H9C7.67392 4 6.40215 4.53162 5.46447 5.4779C4.52678 6.42419 4 7.70762 4 9.04587V64.5505C4 65.8887 4.52678 67.1721 5.46447 68.1184C6.40215 69.0647 7.67392 69.5963 9 69.5963H64C65.3261 69.5963 66.5979 69.0647 67.5355 68.1184C68.4732 67.1721 69 65.8887 69 64.5505V9.04587C69 7.70762 68.4732 6.42419 67.5355 5.4779C66.5979 4.53162 65.3261 4 64 4ZM64 64.5505H9V9.04587H64V64.5505ZM26.5 31.7523V51.9358C26.5 52.6049 26.2366 53.2466 25.7678 53.7198C25.2989 54.1929 24.663 54.4587 24 54.4587C23.337 54.4587 22.7011 54.1929 22.2322 53.7198C21.7634 53.2466 21.5 52.6049 21.5 51.9358V31.7523C21.5 31.0832 21.7634 30.4414 22.2322 29.9683C22.7011 29.4952 23.337 29.2294 24 29.2294C24.663 29.2294 25.2989 29.4952 25.7678 29.9683C26.2366 30.4414 26.5 31.0832 26.5 31.7523ZM54 40.5826V51.9358C54 52.6049 53.7366 53.2466 53.2678 53.7198C52.7989 54.1929 52.163 54.4587 51.5 54.4587C50.837 54.4587 50.2011 54.1929 49.7322 53.7198C49.2634 53.2466 49 52.6049 49 51.9358V40.5826C49 38.9098 48.3415 37.3055 47.1694 36.1226C45.9973 34.9397 44.4076 34.2752 42.75 34.2752C41.0924 34.2752 39.5027 34.9397 38.3306 36.1226C37.1585 37.3055 36.5 38.9098 36.5 40.5826V51.9358C36.5 52.6049 36.2366 53.2466 35.7678 53.7198C35.2989 54.1929 34.663 54.4587 34 54.4587C33.337 54.4587 32.7011 54.1929 32.2322 53.7198C31.7634 53.2466 31.5 52.6049 31.5 51.9358V31.7523C31.5031 31.1343 31.7309 30.539 32.14 30.0792C32.5492 29.6195 33.1114 29.3272 33.7199 29.258C34.3284 29.1888 34.941 29.3474 35.4413 29.7037C35.9417 30.0599 36.295 30.5892 36.4344 31.1909C38.1256 30.0331 40.0974 29.3621 42.138 29.2499C44.1786 29.1377 46.2109 29.5886 48.0167 30.5541C49.8226 31.5196 51.3337 32.9633 52.3879 34.7301C53.442 36.497 53.9993 38.5202 54 40.5826ZM27.75 22.922C27.75 23.6705 27.5301 24.4022 27.118 25.0245C26.706 25.6469 26.1203 26.1319 25.4351 26.4184C24.7498 26.7048 23.9958 26.7797 23.2684 26.6337C22.541 26.4877 21.8728 26.1273 21.3483 25.598C20.8239 25.0687 20.4667 24.3944 20.3221 23.6603C20.1774 22.9262 20.2516 22.1653 20.5355 21.4738C20.8193 20.7823 21.2999 20.1912 21.9166 19.7754C22.5333 19.3596 23.2583 19.1376 24 19.1376C24.9946 19.1376 25.9484 19.5363 26.6517 20.246C27.3549 20.9558 27.75 21.9183 27.75 22.922Z" fill="black"/>
</svg>
