<svg width="69" height="58" viewBox="0 0 69 58" fill="none" xmlns="http://www.w3.org/2000/svg">
<path d="M63 0H5.25C3.85761 0 2.52226 0.553123 1.53769 1.53769C0.553123 2.52226 0 3.85761 0 5.25V52.5C0 53.8924 0.553123 55.2277 1.53769 56.2123C2.52226 57.1969 3.85761 57.75 5.25 57.75H63C64.3924 57.75 65.7277 57.1969 66.7123 56.2123C67.6969 55.2277 68.25 53.8924 68.25 52.5V5.25C68.25 3.85761 67.6969 2.52226 66.7123 1.53769C65.7277 0.553123 64.3924 0 63 0ZM63 5.25V38.9648L54.4458 30.4139C53.9583 29.9263 53.3795 29.5394 52.7424 29.2755C52.1054 29.0116 51.4226 28.8758 50.733 28.8758C50.0435 28.8758 49.3607 29.0116 48.7237 29.2755C48.0866 29.5394 47.5078 29.9263 47.0203 30.4139L40.4578 36.9764L26.0203 22.5389C25.0358 21.5551 23.701 21.0024 22.3092 21.0024C20.9174 21.0024 19.5826 21.5551 18.5981 22.5389L5.25 35.887V5.25H63ZM5.25 43.3125L22.3125 26.25L48.5625 52.5H5.25V43.3125ZM63 52.5H55.988L44.1755 40.6875L50.738 34.125L63 46.3903V52.5ZM39.375 19.6875C39.375 18.9087 39.6059 18.1475 40.0386 17.4999C40.4712 16.8524 41.0862 16.3477 41.8057 16.0497C42.5252 15.7517 43.3169 15.6737 44.0807 15.8257C44.8445 15.9776 45.5461 16.3526 46.0967 16.9033C46.6474 17.4539 47.0224 18.1555 47.1743 18.9193C47.3263 19.6831 47.2483 20.4748 46.9503 21.1943C46.6523 21.9138 46.1476 22.5288 45.5001 22.9614C44.8525 23.3941 44.0913 23.625 43.3125 23.625C42.2682 23.625 41.2667 23.2102 40.5283 22.4717C39.7898 21.7333 39.375 20.7318 39.375 19.6875Z" fill="black"/>
</svg>
