<svg width="340" height="340" viewBox="0 0 340 340" fill="none" xmlns="http://www.w3.org/2000/svg">
<circle cx="170" cy="170" r="170" fill="white"/>
<path d="M48.1 235V102.52H87.7C101.02 102.52 112.36 104.5 121.72 108.46C131.08 112.42 138.58 117.7 144.22 124.3C149.98 130.9 154.18 138.28 156.82 146.44C159.46 154.6 160.78 162.82 160.78 171.1C160.78 180.94 158.98 189.82 155.38 197.74C151.9 205.54 147.1 212.26 140.98 217.9C134.86 223.42 127.78 227.68 119.74 230.68C111.7 233.56 103.18 235 94.18 235H48.1ZM74.2 209.8H89.68C96.28 209.8 102.28 208.96 107.68 207.28C113.08 205.48 117.7 202.9 121.54 199.54C125.5 196.18 128.5 191.98 130.54 186.94C132.7 181.78 133.78 175.9 133.78 169.3C133.78 160.66 132.34 153.64 129.46 148.24C126.7 142.72 123.22 138.46 119.02 135.46C114.94 132.46 110.74 130.42 106.42 129.34C102.1 128.14 98.44 127.54 95.44 127.54H74.2V209.8Z" fill="black"/>
<path d="M186.967 235V102.52H226.567C239.887 102.52 251.227 104.5 260.587 108.46C269.947 112.42 277.447 117.7 283.087 124.3C288.847 130.9 293.047 138.28 295.687 146.44C298.327 154.6 299.647 162.82 299.647 171.1C299.647 180.94 297.847 189.82 294.247 197.74C290.767 205.54 285.967 212.26 279.847 217.9C273.727 223.42 266.647 227.68 258.607 230.68C250.567 233.56 242.047 235 233.047 235H186.967ZM213.067 209.8H228.547C235.147 209.8 241.147 208.96 246.547 207.28C251.947 205.48 256.567 202.9 260.407 199.54C264.367 196.18 267.367 191.98 269.407 186.94C271.567 181.78 272.647 175.9 272.647 169.3C272.647 160.66 271.207 153.64 268.327 148.24C265.567 142.72 262.087 138.46 257.887 135.46C253.807 132.46 249.607 130.42 245.287 129.34C240.967 128.14 237.307 127.54 234.307 127.54H213.067V209.8Z" fill="#8DC4E6"/>
</svg>
